<?xml version="1.0" encoding="utf-8"?>
<!-- Generator: Adobe Illustrator 24.0.1, SVG Export Plug-In . SVG Version: 6.00 Build 0)  -->
<svg version="1.1" id="Capa_1" xmlns="http://www.w3.org/2000/svg" xmlns:xlink="http://www.w3.org/1999/xlink" x="0px" y="0px"
	 viewBox="0 0 408.6 408.6" style="enable-background:new 0 0 408.6 408.6;" xml:space="preserve">
<style type="text/css">
	.st0{fill:#FED134;}
</style>
<g>
	<g>
		<path class="st0" d="M204.3,0C91.6,0,0,91.6,0,204.3s91.6,204.3,204.3,204.3S408.6,317,408.6,204.3S316.9,0,204.3,0z M318.5,150.5
			L187.9,280.1c-7.7,7.7-20,8.2-28.2,0.5l-69.1-63c-8.2-7.7-8.7-20.5-1.5-28.7c7.7-8.2,20.5-8.7,28.7-1l54.8,50.2l116.7-116.7
			c8.2-8.2,21-8.2,29.2,0C326.7,129.5,326.7,142.3,318.5,150.5z"/>
	</g>
</g>
</svg>
