<svg xmlns="http://www.w3.org/2000/svg" viewBox="0 0 500 500"><g id="freepik--background-complete--inject-12"><rect y="382.4" width="500" height="0.25" style="fill:#ebebeb"></rect><rect x="416.78" y="398.49" width="33.12" height="0.25" style="fill:#ebebeb"></rect><rect x="239.64" y="395.44" width="30.22" height="0.25" style="fill:#ebebeb"></rect><rect x="345.89" y="389.21" width="69.89" height="0.25" style="fill:#ebebeb"></rect><rect x="52.46" y="390.89" width="167.14" height="0.25" style="fill:#ebebeb"></rect><rect x="228.5" y="390.89" width="6.33" height="0.25" style="fill:#ebebeb"></rect><path d="M237,337.8H43.91a5.71,5.71,0,0,1-5.7-5.71V60.66A5.71,5.71,0,0,1,43.91,55H237a5.71,5.71,0,0,1,5.71,5.71V332.09A5.71,5.71,0,0,1,237,337.8ZM43.91,55.2a5.46,5.46,0,0,0-5.45,5.46V332.09a5.46,5.46,0,0,0,5.45,5.46H237a5.47,5.47,0,0,0,5.46-5.46V60.66A5.47,5.47,0,0,0,237,55.2Z" style="fill:#ebebeb"></path><path d="M453.31,337.8H260.21a5.72,5.72,0,0,1-5.71-5.71V60.66A5.72,5.72,0,0,1,260.21,55h193.1A5.71,5.71,0,0,1,459,60.66V332.09A5.71,5.71,0,0,1,453.31,337.8ZM260.21,55.2a5.47,5.47,0,0,0-5.46,5.46V332.09a5.47,5.47,0,0,0,5.46,5.46h193.1a5.47,5.47,0,0,0,5.46-5.46V60.66a5.47,5.47,0,0,0-5.46-5.46Z" style="fill:#ebebeb"></path><path d="M345.83,259.08c35.79,36.38,23.72,69.05-.46,118.54-.79,1.59-1.54,3.19-2.33,4.78h59.6c18.58-41.45,17.59-103.28-36.07-157.84-29.69-30.19-31.85-44.27-32-46.23,1.41-2.3,7.87-5.85,13.64-6.78,9.19-1.52,15.78-12.41,14.62-24.41s-9.48-20.56-18.73-19.23c-3.58.52-35.21,6.12-42.12,38.38C294.39,201.78,323.39,236.23,345.83,259.08Z" style="fill:#ebebeb"></path><path d="M238,211.32l105.23,12.09c8.91,1,17.56-3.87,22.36-12.65,5.24-9.57,9.54-21.73,3.07-28.89a30.09,30.09,0,0,1-7.56-22c1.91-30.42-10.54-68.39-50-71.65-22.34-1.85-30.2,13.79-32.28,30.8-1.93,15.88-14.93,26.55-28.45,23.27-11.9-2.9-22.48.49-21.63,22.4.42,10.69-4.54,20.72-12.73,25.62C204.22,197.35,197.68,209,238,211.32Z" style="fill:#e0e0e0"></path><path d="M158.38,380.48c.89.68,1.79,1.31,2.71,1.92H355.88c17.29-7.71,26-15,14.29-19.3-10.43-3.85-20.26-12.77-25.49-23.38C338,326.26,318.06,324.49,300.1,326c-15.24,1.26-33.38-11.13-40.84-28.32-7.94-18.28-23.41-36.92-53.43-36C158,263.22,142.76,296,152.1,332.14c2.89,11.16.33,21.34-7.12,26.31C138.11,363.05,148.79,373.16,158.38,380.48Z" style="fill:#fafafa"></path><path d="M26.41,380.92a16.28,16.28,0,0,0,1.25,1.48H177.27c16.64-5.92,26.49-11.52,19.38-14.83-6.34-2.95-10-9.8-9.41-17.95.76-10.34-13.82-11.7-28.26-10.56-12.25,1-20.8-8.54-19-21.74,1.86-14.05-1.91-28.36-25.38-27.63A77,77,0,0,0,42.62,343.8c-2.63,8.57-9,16.39-16.91,20.2C18.43,367.54,22.23,375.3,26.41,380.92Z" style="fill:#e6e6e6"></path><path d="M289.93,267.26,456,226.65c8.65-1,16.46-6.87,21.07-16.92,3.49-7.63,4.5-16.07-4.48-20.39-10.34-5-17.88-14.73-21.46-26.2-8.51-27.27-38-55-94.42-49.37-29.25,2.91-39.25,15.23-40.7,29-2.19,20.72-18.28,36-37.81,36.22-16.35.17-29.66,4.69-27.63,19.59a39.32,39.32,0,0,1-15.44,36.91C223.3,244.23,234.53,273.68,289.93,267.26Z" style="fill:#f5f5f5"></path><circle cx="197.09" cy="91.14" r="25.35" transform="translate(-19.88 82.36) rotate(-22.5)" style="fill:#f0f0f0"></circle><path d="M188.24,84c11.37-7.28,9-14.22-14.81-12.84s-27.67,12.22-27.67,12.22-36-1.32-33,6.36c-20.53,1.81-26.13,3.59-12,4.52l103.18-7.15S207.62,82.35,188.24,84Z" style="fill:#fafafa"></path><path d="M67.23,157.88l56.23-3.9s21.74-7.58,8.06-7.41c10.42-5.91,17.48-15.21-4.16-13.91s-28.67,13.93-28.67,13.93-21.15-6.66-29,6.81C64.58,153.76,39.82,159.78,67.23,157.88Z" style="fill:#f5f5f5"></path><path d="M366.43,88.8,407.52,86s15.89-5.54,5.89-5.42c7.62-4.32,12.78-11.12-3-10.17s-20.95,10.18-20.95,10.18-15.45-4.87-21.19,5C364.5,85.79,346.4,90.19,366.43,88.8Z" style="fill:#f5f5f5"></path></g><g id="freepik--Shadow--inject-12"><ellipse id="freepik--path--inject-12" cx="250" cy="416.24" rx="193.89" ry="11.32" style="fill:#f5f5f5"></ellipse></g><g id="freepik--Butterflies--inject-12"><path d="M173.38,117.39c-1.39-6.26-9.93-14.66-14.84-17.76s-5.44,11.24-4.41,16.22,4.51,11.77,8,13.41c-3.56,1-12.87,10-6.53,13.3s14.31-1.15,14.31-1.15Z" style="fill:#FFC100"></path><path d="M183.1,150.34l-.2-1a7.38,7.38,0,0,0,3.59-1.74l.67.75A8.46,8.46,0,0,1,183.1,150.34Z" style="fill:#FFC100"></path><path d="M189.82,143.4l-1-.18a16,16,0,0,0-1.8-9.64l.88-.47A16.94,16.94,0,0,1,189.82,143.4Z" style="fill:#FFC100"></path><path d="M174.33,117.53c3.35-5.61,14.2-11.3,19.88-12.92s1.74,13.49-1.16,17.7-6.41,9.3-10.29,9.9c3.08,1.92,6.77,13.29-.34,14.7s-12.49-5.5-12.49-5.5Z" style="fill:#FFC100"></path><path d="M169.09,141.89l2.71-25.47a1.6,1.6,0,0,1,1.65-1.54l1.62.23a1.51,1.51,0,0,1,1.09,1.92l-5.59,25.07C170.33,143.18,169,143,169.09,141.89Z" style="fill:#263238"></path><path d="M173.86,116.47l-.6-.18c0-.07,2.26-7.89-2.63-10.69l.31-.55C176.26,108.1,174,116.13,173.86,116.47Z" style="fill:#263238"></path><path d="M175,116.56l-.62-.08c.06-.47,1.56-11.43,7.69-11.71l0,.62C176.53,105.65,175.05,116.45,175,116.56Z" style="fill:#263238"></path><path d="M110.3,171.55c.07-4,3.71-9.86,6-12.14s6.55,5.64,6.53,8.81-3.57,8.62-5.26,9.89c2,.36,7.93,5.29,4.91,7.81s-7.74.33-7.74.33Z" style="fill:#FFC100"></path><path d="M110.3,171.55c.07-4,3.71-9.86,6-12.14s6.55,5.64,6.53,8.81-3.57,8.62-5.26,9.89c2,.36,7.93,5.29,4.91,7.81s-7.74.33-7.74.33Z" style="fill:#fff;opacity:0.30000000000000004"></path><path d="M109.81,171.7c-2.39-3.24-8.78-6-12-6.58s-1.59,8.69.41,11.1,6.53,5.15,8.66,5.24c-1.43,1.42-2.17,8.76,1.77,9.12s6.06-4.33,6.06-4.33Z" style="fill:#FFC100"></path><path d="M109.81,171.7c-2.39-3.24-8.78-6-12-6.58s-1.59,8.69.41,11.1,6.53,5.15,8.66,5.24c-1.43,1.42-2.17,8.76,1.77,9.12s6.06-4.33,6.06-4.33Z" style="fill:#fff;opacity:0.30000000000000004"></path><path d="M115.25,186.48l-3.89-15.7a1,1,0,0,0-1.16-.82l-1,.28a1,1,0,0,0-.52,1.3l5.65,15.2C114.58,187.39,115.42,187.16,115.25,186.48Z" style="fill:#263238"></path><path d="M110.08,171c-.12-.25-2.89-6.34.18-8.7l.25.31c-2.83,2.17-.1,8.17-.07,8.23Z" style="fill:#263238"></path><path d="M109.35,171.13s-1.1-5.61-4.62-5.3l0-.39c3.87-.36,5,5.38,5,5.62Z" style="fill:#263238"></path><path d="M190.36,207.48c0-3.41-3.14-8.23-5.09-10.07s-5.65,5.1-5.65,7.8,3,7.18,4.48,8.19c-1.72.39-6.84,4.86-4.25,6.86s6.65-.07,6.65-.07Z" style="fill:#FFC100"></path><path d="M190.36,207.48c0-3.41-3.14-8.23-5.09-10.07s-5.65,5.1-5.65,7.8,3,7.18,4.48,8.19c-1.72.39-6.84,4.86-4.25,6.86s6.65-.07,6.65-.07Z" style="fill:#fff;opacity:0.7000000000000001"></path><path d="M189.56,207.48c1.76-2.77,6.86-4.8,9.47-5.1s1.86,8,.36,10-5.06,4.19-6.82,4.12c1.28,1.39,2.35,8.1-.88,8.14s-5.27-4.37-5.27-4.37Z" style="fill:#FFC100"></path><path d="M189.56,207.48c1.76-2.77,6.86-4.8,9.47-5.1s1.86,8,.36,10-5.06,4.19-6.82,4.12c1.28,1.39,2.35,8.1-.88,8.14s-5.27-4.37-5.27-4.37Z" style="fill:#fff;opacity:0.7000000000000001"></path><path d="M186,220.41l3.4-15.69c.12-.58.59-1,1-.82l.86.28a1,1,0,0,1,.45,1.29l-4.94,15.2C186.62,221.32,185.89,221.09,186,220.41Z" style="fill:#263238"></path><path d="M190.57,204.91l-.34-.13c0-.07,2.42-6.08-.06-8.27l.24-.27C193.09,198.59,190.67,204.66,190.57,204.91Z" style="fill:#263238"></path><path d="M191.21,205.06l-.36-.06c0-.24,1-6,4.42-5.61l0,.36C192.16,199.45,191.22,205,191.21,205.06Z" style="fill:#263238"></path></g><g id="freepik--Character--inject-12"><path d="M316,174.19l-1.36-4.92-7.5,6.31a45.7,45.7,0,0,0,4.56,2.95,2.5,2.5,0,0,0,3.38-.9l.61-1A3.13,3.13,0,0,0,316,174.19Z" style="fill:#b55b52"></path><polygon points="307.7 163.95 304.28 171.09 307.16 175.58 314.66 169.27 307.7 163.95" style="fill:#b55b52"></polygon><rect x="294.34" y="152.28" width="27.84" height="19.88" rx="4.08" transform="translate(23.36 -38.2) rotate(7.37)" style="fill:#263238"></rect><path d="M333.42,209.23c-4.59,0-13.06-3.89-24-12.81-11.89-9.73-10.76-17.37-9.94-23a13.69,13.69,0,0,0,.15-5.33l1.05-.29a14.37,14.37,0,0,1-.12,5.78c-.83,5.62-1.86,12.62,9.55,22,14.55,11.91,23.74,14.06,25.61,11.79,1.21-1.46-.47-5.51-7-11-7.32-6.1-7.69-15.44-7.95-22.25a27,27,0,0,0-.61-6l1-.33a26.84,26.84,0,0,1,.67,6.31c.26,6.61.6,15.66,7.56,21.45,6.38,5.31,9.12,10.1,7.15,12.49A3.94,3.94,0,0,1,333.42,209.23Z" style="fill:#263238"></path><path d="M315.59,157.35l-5.66-1.87a1.54,1.54,0,0,1-1-1.59l.44-3.46a1,1,0,0,1,1.33-.81l5.66,1.87a1.55,1.55,0,0,1,1,1.59l-.45,3.46A1,1,0,0,1,315.59,157.35Z" style="fill:#263238"></path><path d="M313.37,151.25l-3.27-1.08a.88.88,0,0,1-.58-.91l.25-2a.57.57,0,0,1,.77-.47l3.26,1.08a.89.89,0,0,1,.59.92l-.26,2A.55.55,0,0,1,313.37,151.25Z" style="fill:#263238"></path><rect x="261.03" y="148.46" width="14.81" height="17.22" rx="2.77" transform="translate(22.37 -33.14) rotate(7.37)"></rect><rect x="267.61" y="151.27" width="19.46" height="13.9" rx="4.68" transform="translate(22.59 -34.27) rotate(7.37)" style="fill:#263238"></rect><path d="M271.44,164.74h0a4.88,4.88,0,0,1-3.28-1.9,4.94,4.94,0,0,1-1-3.65l.59-4.5a5,5,0,0,1,5.54-4.28.27.27,0,1,1-.07.54,4.41,4.41,0,0,0-4.93,3.81l-.59,4.5a4.44,4.44,0,0,0,3.81,4.94.26.26,0,0,1,.24.3A.28.28,0,0,1,271.44,164.74Z" style="fill:#fff"></path><rect x="277.25" y="151.74" width="12.53" height="14.57" rx="2.34" transform="translate(22.74 -35.06) rotate(7.37)" style="fill:#263238"></rect><rect x="279.1" y="151.98" width="12.53" height="14.57" rx="2.34" transform="translate(22.79 -35.29) rotate(7.37)"></rect><rect x="284.66" y="154.36" width="16.46" height="11.76" rx="3.96" transform="translate(22.97 -36.25) rotate(7.37)" style="fill:#263238"></rect><path d="M287.9,165.79h0a4.24,4.24,0,0,1-3.65-4.74l.49-3.81a4.24,4.24,0,0,1,4.74-3.65.26.26,0,0,1,.23.3.28.28,0,0,1-.3.24,3.7,3.7,0,0,0-4.13,3.18l-.49,3.81a3.7,3.7,0,0,0,3.18,4.13.26.26,0,0,1,.23.3A.26.26,0,0,1,287.9,165.79Z" style="fill:#fff"></path><rect x="312.58" y="155.6" width="6.86" height="4.9" rx="1" transform="translate(22.88 -39.23) rotate(7.37)" style="fill:#FFC100;opacity:0.6000000000000001"></rect><rect x="294.42" y="151.1" width="9.46" height="19.88" rx="4.08" transform="translate(23.13 -37.04) rotate(7.37)"></rect><path d="M314.34,188.73h-.28a5.07,5.07,0,0,0-.76.06c-11.82,7.9,1.58,13.84-.78,11.83l.41.1.15,0h.05l-.17,0-.51-.06-1.09-.13c-.74-.09-1.47-.2-2.2-.31-1.47-.21-2.94-.45-4.4-.7-2.94-.5-5.86-1.13-8.78-1.84a70.28,70.28,0,0,1-17.56-6.59A28.92,28.92,0,0,1,274,188c-.36-.32-.72-.65-1.07-1l-.53-.56-.13-.14-.26-.3a6.26,6.26,0,0,1-.82-1.25,6.8,6.8,0,0,1-.71-2.44,8.27,8.27,0,0,1,0-1c0-.29,0-.54.07-.81a9.58,9.58,0,0,1,.61-2.23,16.58,16.58,0,0,1,1.48-2.74c.51-.76,1-1.44,1.52-2.08a45.32,45.32,0,0,1,3.12-3.53,99,99,0,0,1,13.52-11.56l4.1,4.38c-3.49,4.44-7.09,8.92-10.25,13.33-.78,1.1-1.52,2.21-2.17,3.27a16.91,16.91,0,0,0-.84,1.52,4.63,4.63,0,0,0-.42,1.11c0,.08,0,.1.07-.15a2.23,2.23,0,0,0,0-.27,2.2,2.2,0,0,0,0-.44,4,4,0,0,0-.41-1.42,4,4,0,0,0-.53-.81c-.16-.18-.09-.1-.07-.09l.05.05.23.21c.17.14.34.28.53.42a18.73,18.73,0,0,0,2.78,1.66,44.21,44.21,0,0,0,7.05,2.73c2.52.78,5.15,1.44,7.81,2s5.38,1.1,8.1,1.59c1.36.24,2.73.46,4.1.66l2.06.31,1,.16.55.08.37.06.18,0,.22,0,.44.11c-2.35-2,11.06,3.94-.77,11.84a5.74,5.74,0,0,1-.79.07h-.52Z" style="fill:#b55b52"></path><path d="M295.31,152.43H299l-1.28,5-6.9-2.48,1.2-1.15A4.77,4.77,0,0,1,295.31,152.43Z" style="fill:#b55b52"></path><path d="M289.06,161.73l1.72-6.8,6.9,2.48s-.05,8.19-5.37,7.77Z" style="fill:#b55b52"></path><path d="M345.23,204.14c-.6.22-.84.28-1.21.4l-1,.27c-.63.16-1.26.3-1.88.41-1.24.24-2.46.37-3.67.49a43.1,43.1,0,0,1-7.19-.05,47.17,47.17,0,0,1-7-1.11c-1.14-.25-2.26-.57-3.36-.91l-.83-.25-.48-.15c-.26-.08-.53-.17-.79-.27a10.73,10.73,0,0,1-2.73-1.6,13.33,13.33,0,0,1-3.21-3.93,22,22,0,0,1-1.61-3.77,36.73,36.73,0,0,1-1.38-7,57.5,57.5,0,0,1,.22-13.38h6A113.42,113.42,0,0,0,317.73,185a32.91,32.91,0,0,0,1.9,5.13,11.21,11.21,0,0,0,1.13,1.9,2.3,2.3,0,0,0,.9.81c.06,0,.06,0,0-.07s0,0,0,0h.11l.18,0,.7.13,1.4.24,1.41.18c.93.16,1.86.2,2.79.3s1.85.13,2.76.13a44,44,0,0,0,5.42-.2c.87-.09,1.74-.2,2.57-.35l1.21-.23.54-.12c.14,0,.41-.12.3-.07Z" style="fill:#b55b52"></path><path d="M338.49,165.2c-1.82,8.11-2.27,14.15-.63,20.55,0,0-1.83,5.93-12.7,5.93-12,0-5.49-5.93-5.49-5.93,6.59-1.56,6.61-6.41,5.64-10.95Z" style="fill:#b55b52"></path><path d="M340,189.42c.93-1.88,2-4,0-4.71-2.12-.74-13.85-1.49-17.95-.1a4.33,4.33,0,0,0-3.11,5.2Z" style="fill:#263238"></path><path d="M395.84,406.2a10.94,10.94,0,0,0,1.83-1.4.22.22,0,0,0,.05-.23.19.19,0,0,0-.18-.13c-.38,0-3.69-.12-4.28.79a.66.66,0,0,0,0,.68,1.23,1.23,0,0,0,.91.74A2.69,2.69,0,0,0,395.84,406.2Zm1.16-1.36c-1.14,1-2.16,1.51-2.77,1.4a.87.87,0,0,1-.62-.51c-.07-.15,0-.23,0-.28C393.91,405,395.68,404.83,397,404.84Z" style="fill:#FFC100"></path><path d="M397.63,404.82a.2.2,0,0,0,.08-.08.2.2,0,0,0,0-.21c-.06-.09-1.49-2.18-2.79-2.4a1.19,1.19,0,0,0-.9.21h0a.69.69,0,0,0-.3.8c.32.94,2.79,1.73,3.82,1.71A.17.17,0,0,0,397.63,404.82Zm-3.29-2.2a.76.76,0,0,1,.5-.08c.83.14,1.8,1.28,2.26,1.87-1.12-.15-2.81-.85-3-1.41,0-.05-.05-.17.16-.33h0Z" style="fill:#FFC100"></path><polygon points="406.84 401.09 401.02 405.82 387.17 391.59 392.98 386.86 406.84 401.09" style="fill:#b55b52"></polygon><path d="M398.2,404l7.39-5.12a.67.67,0,0,1,.86.07l4.26,5.53a1.23,1.23,0,0,1-.16,1.87,75,75,0,0,1-7.16,4.37c-2.11,1.2-3.72,6.13-10.95,6.13-3.28,0-4.38-2.61-3-3,7.11-2.17,7.31-6,8-8.67A2,2,0,0,1,398.2,404Z" style="fill:#263238"></path><path d="M305.14,257.13H348c.49-5.89-1.79-32.27,3.16-60A9.53,9.53,0,0,0,342.59,186c-1.22-.12-2.47-.22-3.72-.28a159.87,159.87,0,0,0-18.19,0c-2.69.25-5.33.68-7.47,1.1-3.48.69-6.73,3.15-7.25,6.66-3.23,21.65-.82,63.63-.82,63.63" style="fill:#FFC100"></path><path d="M313.81,252.92H301.16a4.54,4.54,0,0,1-4.59-5.14L298,234.11a5.89,5.89,0,0,1,5.69-5.14h12.65a4.54,4.54,0,0,1,4.59,5.14l-1.48,13.67A5.87,5.87,0,0,1,313.81,252.92Z" style="fill:#263238"></path><path d="M316.38,229l-2.57,23.95a5.87,5.87,0,0,0,5.68-5.14L321,234.11A4.54,4.54,0,0,0,316.38,229Z"></path><path d="M319.88,234.28a.5.5,0,0,1-.32-.89c.28-.23,28-22.95,22.55-47.26a.5.5,0,0,1,.38-.6.49.49,0,0,1,.59.38c5.57,24.92-22.6,48-22.89,48.26A.51.51,0,0,1,319.88,234.28Z" style="fill:#263238"></path><path d="M316.57,229.9l-14.83,0a3.71,3.71,0,0,0-1.44.32,5.81,5.81,0,0,0-2.25,3.93l-.69,6.35a2.48,2.48,0,0,0,1.46.45l14.83,0a4.69,4.69,0,0,0,4.17-3.47l1.09-4.08C319.41,231.47,318.36,229.9,316.57,229.9Z"></path><path d="M313.75,240.06l-14.83,0c-1.79,0-2.84-1.57-2.34-3.49l1.08-4.08a4.72,4.72,0,0,1,4.18-3.48l14.83,0c1.79,0,2.84,1.58,2.33,3.49l-1.08,4.08A4.72,4.72,0,0,1,313.75,240.06Z" style="fill:#263238"></path><path d="M305.15,200.6c-.37,4.25-.6,8.89-.73,13.63C309.19,208.93,312.44,202.33,305.15,200.6Z" style="opacity:0.2"></path><path d="M315.17,202.76c-5.68,5.08-17.25-1.63-17.25-1.63l-3.45-16.58s12.81,0,22.83,1.24C328.49,187.11,321.56,197,315.17,202.76Z" style="fill:#FFC100"></path><g style="opacity:0.2"><polygon points="392.98 386.86 387.17 391.6 394.31 398.93 400.13 394.19 392.98 386.86"></polygon></g><path d="M312.93,257.13s14.11,45.3,18.22,68.21c4.49,25.09,57.82,72.39,57.82,72.39l9.94-9.26s-32.85-43.82-43.85-60.85c-2.34-27-7.12-70.49-7.12-70.49Z" style="fill:#263238"></path><path d="M384.88,396.82s4.65,3.43,4.65,3.43l12.52-10.74-3.35-3.74Z" style="fill:#FFC100"></path><path d="M319.88,280.47c1.13,3.94,2.31,8.14,3.47,12.41,6.32-9.3,7.19-20.61,7.19-20.61Z" style="opacity:0.2"></path><path d="M318.38,157.24c-.09.64-.5,1.12-.92,1.08s-.69-.6-.6-1.23.51-1.13.93-1.08S318.47,156.6,318.38,157.24Z" style="fill:#263238"></path><path d="M317.94,158.37a24.31,24.31,0,0,1-3.84,5.16c1,1.17,3,.88,3,.88Z" style="fill:#a02724"></path><path d="M318.13,153.06a.36.36,0,0,1-.24-.25.38.38,0,0,1,.27-.47,3.71,3.71,0,0,1,3.31.93.38.38,0,0,1,0,.54.37.37,0,0,1-.53,0,3,3,0,0,0-2.61-.76A.28.28,0,0,1,318.13,153.06Z" style="fill:#263238"></path><path d="M340,158.08c-1.6,7.8-2.13,12.44-6.69,16.06A10.33,10.33,0,0,1,316.46,167c-.69-7.23,2-18.77,10.19-21.11A10.44,10.44,0,0,1,340,158.08Z" style="fill:#b55b52"></path><path d="M322.31,161.84l-3.42.3s-.51-4.9,2.18-7.68c-1.8-.33-3.45-3.17-3.15-7.09.31-4.15,6.63-10.66,11.22-6.48,4.94,4.5,14.65,5.55,12.72,8.29,2.84-.53,9.56,8.85,2.84,13.45s-4.44,9.07-7.64,10.89S323.28,173.46,322.31,161.84Z" style="fill:#263238"></path><path d="M341.54,149.34s1.38-1.27-.18-4C343.63,146.53,343.17,148.89,341.54,149.34Z" style="fill:#263238"></path><path d="M326.1,161.62a9.47,9.47,0,0,1-3,5c-2,1.72-3.63.32-3.58-2,0-2.13,1.14-5.59,3.4-6.4S326.6,159.28,326.1,161.62Z" style="fill:#b55b52"></path><path d="M247.51,408.64a10.75,10.75,0,0,0,2.29-.31.21.21,0,0,0,.06-.38c-.32-.2-3.14-1.93-4.11-1.43a.64.64,0,0,0-.35.58,1.24,1.24,0,0,0,.43,1.1A2.63,2.63,0,0,0,247.51,408.64Zm1.69-.6c-1.49.29-2.63.24-3.11-.16a.85.85,0,0,1-.28-.75.28.28,0,0,1,.13-.25C246.44,406.63,248.05,407.37,249.2,408Z" style="fill:#FFC100"></path><path d="M249.75,408.33a.2.2,0,0,0,.11,0,.2.2,0,0,0,.09-.19c0-.11-.21-2.63-1.23-3.46a1.15,1.15,0,0,0-.88-.27h0a.68.68,0,0,0-.66.55c-.18,1,1.57,2.89,2.47,3.38A.16.16,0,0,0,249.75,408.33ZM248,404.79a.76.76,0,0,1,.48.18,5,5,0,0,1,1,2.74c-.9-.68-2-2.13-1.9-2.71,0-.05,0-.17.3-.2H248Z" style="fill:#FFC100"></path><polygon points="259.16 408.31 251.16 408.31 251.08 389.78 259.08 389.78 259.16 408.31" style="fill:#b55b52"></polygon><path d="M251.25,407.09H260a.66.66,0,0,1,.66.55l1.31,7.11a1.21,1.21,0,0,1-1.21,1.42c-3.15-.05-7.69-.24-11.66-.24-4.63,0-4.85.26-10.29.26-3.28,0-4.07-3.32-2.68-3.62,6.31-1.37,7.65-1.52,13.18-4.86A3.9,3.9,0,0,1,251.25,407.09Z" style="fill:#263238"></path><polygon points="251.08 389.78 251.12 399.33 259.12 399.33 259.08 389.78 251.08 389.78" style="opacity:0.2"></polygon><path d="M305.14,257.13s-55.09,42.66-57.47,66.94c-2.47,25.26.54,73.12.54,73.12h13.55s7.73-49.64,9.3-74.57c29.56-29,61.78-37.22,70.8-65.49Z" style="fill:#263238"></path><path d="M245.81,391.79c-.06,0,.55,5.63.55,5.63h16.48l.64-5Z" style="fill:#FFC100"></path></g></svg>